<mxfile host="Electron" modified="2023-08-21T00:28:57.736Z" agent="Mozilla/5.0 (Windows NT 10.0; Win64; x64) AppleWebKit/537.36 (KHTML, like Gecko) draw.io/21.6.8 Chrome/114.0.5735.289 Electron/25.5.0 Safari/537.36" etag="jMgao0lOOUwJvhkrlibu" version="21.6.8" type="device">
  <diagram name="Page-1" id="MXJoyOq33z3AeeRWUCVQ">
    <mxGraphModel dx="1719" dy="1618" grid="1" gridSize="10" guides="1" tooltips="1" connect="1" arrows="1" fold="1" page="1" pageScale="1" pageWidth="850" pageHeight="1100" math="0" shadow="0">
      <root>
        <mxCell id="0" />
        <mxCell id="1" parent="0" />
        <mxCell id="jYdG3Akt0IeGUaFJMhiI-1" value="Plan" style="swimlane;fontStyle=1;align=center;verticalAlign=top;childLayout=stackLayout;horizontal=1;startSize=20;horizontalStack=0;resizeParent=1;resizeParentMax=0;resizeLast=0;collapsible=1;marginBottom=0;" parent="1" vertex="1">
          <mxGeometry x="130" y="-780" width="270" height="150" as="geometry" />
        </mxCell>
        <mxCell id="jYdG3Akt0IeGUaFJMhiI-2" value="- name: String&#xa;- last_modified: DateTime&lt;Local&gt;&#xa;- accounts: AccountsManager&#xa;- notifications: NotificationsManager&#xa;- tags: TagsManager" style="text;strokeColor=none;fillColor=none;align=left;verticalAlign=top;spacingLeft=4;spacingRight=4;overflow=hidden;rotatable=0;points=[[0,0.5],[1,0.5]];portConstraint=eastwest;" parent="jYdG3Akt0IeGUaFJMhiI-1" vertex="1">
          <mxGeometry y="20" width="270" height="80" as="geometry" />
        </mxCell>
        <mxCell id="jYdG3Akt0IeGUaFJMhiI-3" value="" style="line;strokeWidth=1;fillColor=none;align=left;verticalAlign=middle;spacingTop=-1;spacingLeft=3;spacingRight=3;rotatable=0;labelPosition=right;points=[];portConstraint=eastwest;strokeColor=inherit;" parent="jYdG3Akt0IeGUaFJMhiI-1" vertex="1">
          <mxGeometry y="100" width="270" height="8" as="geometry" />
        </mxCell>
        <mxCell id="jYdG3Akt0IeGUaFJMhiI-4" value="+ get_total_savings(): Money&#xa;+ get_total_chequings(): Money" style="text;strokeColor=none;fillColor=none;align=left;verticalAlign=top;spacingLeft=4;spacingRight=4;overflow=hidden;rotatable=0;points=[[0,0.5],[1,0.5]];portConstraint=eastwest;" parent="jYdG3Akt0IeGUaFJMhiI-1" vertex="1">
          <mxGeometry y="108" width="270" height="42" as="geometry" />
        </mxCell>
        <mxCell id="jYdG3Akt0IeGUaFJMhiI-22" style="edgeStyle=orthogonalEdgeStyle;rounded=0;orthogonalLoop=1;jettySize=auto;html=1;" parent="1" source="jYdG3Akt0IeGUaFJMhiI-5" target="jYdG3Akt0IeGUaFJMhiI-9" edge="1">
          <mxGeometry relative="1" as="geometry" />
        </mxCell>
        <mxCell id="jYdG3Akt0IeGUaFJMhiI-23" style="edgeStyle=orthogonalEdgeStyle;rounded=0;orthogonalLoop=1;jettySize=auto;html=1;" parent="1" source="jYdG3Akt0IeGUaFJMhiI-5" target="jYdG3Akt0IeGUaFJMhiI-17" edge="1">
          <mxGeometry relative="1" as="geometry" />
        </mxCell>
        <mxCell id="jYdG3Akt0IeGUaFJMhiI-119" style="edgeStyle=orthogonalEdgeStyle;rounded=0;orthogonalLoop=1;jettySize=auto;html=1;endArrow=block;endFill=1;" parent="1" source="jYdG3Akt0IeGUaFJMhiI-5" target="jYdG3Akt0IeGUaFJMhiI-33" edge="1">
          <mxGeometry relative="1" as="geometry" />
        </mxCell>
        <mxCell id="jYdG3Akt0IeGUaFJMhiI-5" value="ChequingAccount" style="swimlane;fontStyle=1;align=center;verticalAlign=top;childLayout=stackLayout;horizontal=1;startSize=20;horizontalStack=0;resizeParent=1;resizeParentMax=0;resizeLast=0;collapsible=1;marginBottom=0;" parent="1" vertex="1">
          <mxGeometry x="320" y="170" width="220" height="154" as="geometry" />
        </mxCell>
        <mxCell id="jYdG3Akt0IeGUaFJMhiI-6" value="- balance: Money&#xa;- currency: Currency&#xa;- max_balance: Option&lt;Money&gt;&#xa;- id: u32" style="text;strokeColor=none;fillColor=none;align=left;verticalAlign=top;spacingLeft=4;spacingRight=4;overflow=hidden;rotatable=0;points=[[0,0.5],[1,0.5]];portConstraint=eastwest;" parent="jYdG3Akt0IeGUaFJMhiI-5" vertex="1">
          <mxGeometry y="20" width="220" height="100" as="geometry" />
        </mxCell>
        <mxCell id="jYdG3Akt0IeGUaFJMhiI-7" value="" style="line;strokeWidth=1;fillColor=none;align=left;verticalAlign=middle;spacingTop=-1;spacingLeft=3;spacingRight=3;rotatable=0;labelPosition=right;points=[];portConstraint=eastwest;strokeColor=inherit;" parent="jYdG3Akt0IeGUaFJMhiI-5" vertex="1">
          <mxGeometry y="120" width="220" height="8" as="geometry" />
        </mxCell>
        <mxCell id="jYdG3Akt0IeGUaFJMhiI-8" value="+++" style="text;strokeColor=none;fillColor=none;align=left;verticalAlign=top;spacingLeft=4;spacingRight=4;overflow=hidden;rotatable=0;points=[[0,0.5],[1,0.5]];portConstraint=eastwest;" parent="jYdG3Akt0IeGUaFJMhiI-5" vertex="1">
          <mxGeometry y="128" width="220" height="26" as="geometry" />
        </mxCell>
        <mxCell id="jYdG3Akt0IeGUaFJMhiI-21" style="edgeStyle=orthogonalEdgeStyle;rounded=0;orthogonalLoop=1;jettySize=auto;html=1;" parent="1" source="jYdG3Akt0IeGUaFJMhiI-9" target="jYdG3Akt0IeGUaFJMhiI-17" edge="1">
          <mxGeometry relative="1" as="geometry" />
        </mxCell>
        <mxCell id="jYdG3Akt0IeGUaFJMhiI-9" value="Money" style="swimlane;fontStyle=1;align=center;verticalAlign=top;childLayout=stackLayout;horizontal=1;startSize=20;horizontalStack=0;resizeParent=1;resizeParentMax=0;resizeLast=0;collapsible=1;marginBottom=0;" parent="1" vertex="1">
          <mxGeometry x="240" y="400" width="160" height="178" as="geometry" />
        </mxCell>
        <mxCell id="jYdG3Akt0IeGUaFJMhiI-10" value="- major: i32 (dollars)&#xa;- minor: u8 (cents, 0...99)&#xa;- currency: Currency" style="text;strokeColor=none;fillColor=none;align=left;verticalAlign=top;spacingLeft=4;spacingRight=4;overflow=hidden;rotatable=0;points=[[0,0.5],[1,0.5]];portConstraint=eastwest;" parent="jYdG3Akt0IeGUaFJMhiI-9" vertex="1">
          <mxGeometry y="20" width="160" height="60" as="geometry" />
        </mxCell>
        <mxCell id="jYdG3Akt0IeGUaFJMhiI-11" value="" style="line;strokeWidth=1;fillColor=none;align=left;verticalAlign=middle;spacingTop=-1;spacingLeft=3;spacingRight=3;rotatable=0;labelPosition=right;points=[];portConstraint=eastwest;strokeColor=inherit;" parent="jYdG3Akt0IeGUaFJMhiI-9" vertex="1">
          <mxGeometry y="80" width="160" height="8" as="geometry" />
        </mxCell>
        <mxCell id="jYdG3Akt0IeGUaFJMhiI-12" value="+ eq()&#xa;+ add()&#xa;+ sub()&#xa;+ mult()&#xa;+ div()" style="text;strokeColor=none;fillColor=none;align=left;verticalAlign=top;spacingLeft=4;spacingRight=4;overflow=hidden;rotatable=0;points=[[0,0.5],[1,0.5]];portConstraint=eastwest;" parent="jYdG3Akt0IeGUaFJMhiI-9" vertex="1">
          <mxGeometry y="88" width="160" height="90" as="geometry" />
        </mxCell>
        <mxCell id="jYdG3Akt0IeGUaFJMhiI-17" value="Currency" style="swimlane;fontStyle=1;align=center;verticalAlign=top;childLayout=stackLayout;horizontal=1;startSize=20;horizontalStack=0;resizeParent=1;resizeParentMax=0;resizeLast=0;collapsible=1;marginBottom=0;" parent="1" vertex="1">
          <mxGeometry x="240" y="620" width="380" height="78" as="geometry" />
        </mxCell>
        <mxCell id="jYdG3Akt0IeGUaFJMhiI-18" value="USD, CAD, SYP, JOD, EUR, LBP, GBP, QAR&#xa;Custom(symbol: String, full_name: String, short_name: String) " style="text;strokeColor=none;fillColor=none;align=left;verticalAlign=top;spacingLeft=4;spacingRight=4;overflow=hidden;rotatable=0;points=[[0,0.5],[1,0.5]];portConstraint=eastwest;" parent="jYdG3Akt0IeGUaFJMhiI-17" vertex="1">
          <mxGeometry y="20" width="380" height="50" as="geometry" />
        </mxCell>
        <mxCell id="jYdG3Akt0IeGUaFJMhiI-19" value="" style="line;strokeWidth=1;fillColor=none;align=left;verticalAlign=middle;spacingTop=-1;spacingLeft=3;spacingRight=3;rotatable=0;labelPosition=right;points=[];portConstraint=eastwest;strokeColor=inherit;" parent="jYdG3Akt0IeGUaFJMhiI-17" vertex="1">
          <mxGeometry y="70" width="380" height="8" as="geometry" />
        </mxCell>
        <mxCell id="jYdG3Akt0IeGUaFJMhiI-28" value="SavingsType (enum)" style="swimlane;fontStyle=1;align=center;verticalAlign=top;childLayout=stackLayout;horizontal=1;startSize=20;horizontalStack=0;resizeParent=1;resizeParentMax=0;resizeLast=0;collapsible=1;marginBottom=0;" parent="1" vertex="1">
          <mxGeometry x="-30" y="400" width="260" height="98" as="geometry" />
        </mxCell>
        <mxCell id="jYdG3Akt0IeGUaFJMhiI-29" value="- Groceries, Car, House, Vacation, Mehr,&#xa;Clothing, Entertainment, EmergencyFund, &#xa;Retirement, Investment, Education, Food&#xa;Children, Custom(name: String)" style="text;strokeColor=none;fillColor=none;align=left;verticalAlign=top;spacingLeft=4;spacingRight=4;overflow=hidden;rotatable=0;points=[[0,0.5],[1,0.5]];portConstraint=eastwest;" parent="jYdG3Akt0IeGUaFJMhiI-28" vertex="1">
          <mxGeometry y="20" width="260" height="70" as="geometry" />
        </mxCell>
        <mxCell id="jYdG3Akt0IeGUaFJMhiI-30" value="" style="line;strokeWidth=1;fillColor=none;align=left;verticalAlign=middle;spacingTop=-1;spacingLeft=3;spacingRight=3;rotatable=0;labelPosition=right;points=[];portConstraint=eastwest;strokeColor=inherit;" parent="jYdG3Akt0IeGUaFJMhiI-28" vertex="1">
          <mxGeometry y="90" width="260" height="8" as="geometry" />
        </mxCell>
        <mxCell id="jYdG3Akt0IeGUaFJMhiI-33" value="Account (trait)" style="swimlane;fontStyle=3;align=center;verticalAlign=top;childLayout=stackLayout;horizontal=1;startSize=20;horizontalStack=0;resizeParent=1;resizeParentMax=0;resizeLast=0;collapsible=1;marginBottom=0;" parent="1" vertex="1">
          <mxGeometry x="90" width="440" height="90" as="geometry" />
        </mxCell>
        <mxCell id="jYdG3Akt0IeGUaFJMhiI-35" value="" style="line;strokeWidth=1;fillColor=none;align=left;verticalAlign=middle;spacingTop=-1;spacingLeft=3;spacingRight=3;rotatable=0;labelPosition=right;points=[];portConstraint=eastwest;strokeColor=inherit;" parent="jYdG3Akt0IeGUaFJMhiI-33" vertex="1">
          <mxGeometry y="20" width="440" height="8" as="geometry" />
        </mxCell>
        <mxCell id="jYdG3Akt0IeGUaFJMhiI-36" value="+ withdraw(amount: &amp;Money, statement: &amp;str, tags: Vec&lt;u32&gt;: Withdrawal&#xa;+ deposit(amount: &amp;Money, statement: &amp;str, tags: Vec&lt;u32&gt;): Withdrawal&#xa;" style="text;strokeColor=none;fillColor=none;align=left;verticalAlign=top;spacingLeft=4;spacingRight=4;overflow=hidden;rotatable=0;points=[[0,0.5],[1,0.5]];portConstraint=eastwest;" parent="jYdG3Akt0IeGUaFJMhiI-33" vertex="1">
          <mxGeometry y="28" width="440" height="62" as="geometry" />
        </mxCell>
        <mxCell id="jYdG3Akt0IeGUaFJMhiI-42" style="edgeStyle=orthogonalEdgeStyle;rounded=0;orthogonalLoop=1;jettySize=auto;html=1;" parent="1" source="jYdG3Akt0IeGUaFJMhiI-37" target="jYdG3Akt0IeGUaFJMhiI-28" edge="1">
          <mxGeometry relative="1" as="geometry" />
        </mxCell>
        <mxCell id="jYdG3Akt0IeGUaFJMhiI-120" style="edgeStyle=orthogonalEdgeStyle;rounded=0;orthogonalLoop=1;jettySize=auto;html=1;endArrow=block;endFill=1;" parent="1" source="jYdG3Akt0IeGUaFJMhiI-37" target="jYdG3Akt0IeGUaFJMhiI-33" edge="1">
          <mxGeometry relative="1" as="geometry" />
        </mxCell>
        <mxCell id="jYdG3Akt0IeGUaFJMhiI-121" style="edgeStyle=orthogonalEdgeStyle;rounded=0;orthogonalLoop=1;jettySize=auto;html=1;entryX=0.5;entryY=0;entryDx=0;entryDy=0;endArrow=block;endFill=1;" parent="1" source="jYdG3Akt0IeGUaFJMhiI-37" target="jYdG3Akt0IeGUaFJMhiI-9" edge="1">
          <mxGeometry relative="1" as="geometry" />
        </mxCell>
        <mxCell id="jYdG3Akt0IeGUaFJMhiI-37" value="SavingsAccount" style="swimlane;fontStyle=1;align=center;verticalAlign=top;childLayout=stackLayout;horizontal=1;startSize=20;horizontalStack=0;resizeParent=1;resizeParentMax=0;resizeLast=0;collapsible=1;marginBottom=0;" parent="1" vertex="1">
          <mxGeometry x="70" y="170" width="220" height="154" as="geometry" />
        </mxCell>
        <mxCell id="jYdG3Akt0IeGUaFJMhiI-38" value="- balance: Money&#xa;- currency: Currency&#xa;- max_balance: Option&lt;Money&gt;&#xa;- min_balance: Option&lt;Money&gt;&#xa;- type: SavingsType&#xa;- id: u32" style="text;strokeColor=none;fillColor=none;align=left;verticalAlign=top;spacingLeft=4;spacingRight=4;overflow=hidden;rotatable=0;points=[[0,0.5],[1,0.5]];portConstraint=eastwest;" parent="jYdG3Akt0IeGUaFJMhiI-37" vertex="1">
          <mxGeometry y="20" width="220" height="100" as="geometry" />
        </mxCell>
        <mxCell id="jYdG3Akt0IeGUaFJMhiI-39" value="" style="line;strokeWidth=1;fillColor=none;align=left;verticalAlign=middle;spacingTop=-1;spacingLeft=3;spacingRight=3;rotatable=0;labelPosition=right;points=[];portConstraint=eastwest;strokeColor=inherit;" parent="jYdG3Akt0IeGUaFJMhiI-37" vertex="1">
          <mxGeometry y="120" width="220" height="8" as="geometry" />
        </mxCell>
        <mxCell id="jYdG3Akt0IeGUaFJMhiI-40" value="+++" style="text;strokeColor=none;fillColor=none;align=left;verticalAlign=top;spacingLeft=4;spacingRight=4;overflow=hidden;rotatable=0;points=[[0,0.5],[1,0.5]];portConstraint=eastwest;" parent="jYdG3Akt0IeGUaFJMhiI-37" vertex="1">
          <mxGeometry y="128" width="220" height="26" as="geometry" />
        </mxCell>
        <mxCell id="jYdG3Akt0IeGUaFJMhiI-45" value="SaveMapping" style="swimlane;fontStyle=1;align=center;verticalAlign=top;childLayout=stackLayout;horizontal=1;startSize=20;horizontalStack=0;resizeParent=1;resizeParentMax=0;resizeLast=0;collapsible=1;marginBottom=0;" parent="1" vertex="1">
          <mxGeometry x="610" y="-410" width="320" height="140" as="geometry" />
        </mxCell>
        <mxCell id="jYdG3Akt0IeGUaFJMhiI-46" value="- deposit_account: u32&#xa;- savings_accounts: HashMap&lt;u32, u8&gt;&#xa;// u8 for all numbers 0...100, divided by 100&#xa;// 20 -&gt; 0.20" style="text;strokeColor=none;fillColor=none;align=left;verticalAlign=top;spacingLeft=4;spacingRight=4;overflow=hidden;rotatable=0;points=[[0,0.5],[1,0.5]];portConstraint=eastwest;" parent="jYdG3Akt0IeGUaFJMhiI-45" vertex="1">
          <mxGeometry y="20" width="320" height="70" as="geometry" />
        </mxCell>
        <mxCell id="jYdG3Akt0IeGUaFJMhiI-47" value="" style="line;strokeWidth=1;fillColor=none;align=left;verticalAlign=middle;spacingTop=-1;spacingLeft=3;spacingRight=3;rotatable=0;labelPosition=right;points=[];portConstraint=eastwest;strokeColor=inherit;" parent="jYdG3Akt0IeGUaFJMhiI-45" vertex="1">
          <mxGeometry y="90" width="320" height="8" as="geometry" />
        </mxCell>
        <mxCell id="jYdG3Akt0IeGUaFJMhiI-48" value="+ get_total_savings(): Money&#xa;+ get_total_chequings(): Money" style="text;strokeColor=none;fillColor=none;align=left;verticalAlign=top;spacingLeft=4;spacingRight=4;overflow=hidden;rotatable=0;points=[[0,0.5],[1,0.5]];portConstraint=eastwest;" parent="jYdG3Akt0IeGUaFJMhiI-45" vertex="1">
          <mxGeometry y="98" width="320" height="42" as="geometry" />
        </mxCell>
        <mxCell id="jYdG3Akt0IeGUaFJMhiI-57" style="edgeStyle=orthogonalEdgeStyle;rounded=0;orthogonalLoop=1;jettySize=auto;html=1;" parent="1" source="jYdG3Akt0IeGUaFJMhiI-49" target="jYdG3Akt0IeGUaFJMhiI-53" edge="1">
          <mxGeometry relative="1" as="geometry" />
        </mxCell>
        <mxCell id="jYdG3Akt0IeGUaFJMhiI-49" value="Notification" style="swimlane;fontStyle=1;align=center;verticalAlign=top;childLayout=stackLayout;horizontal=1;startSize=20;horizontalStack=0;resizeParent=1;resizeParentMax=0;resizeLast=0;collapsible=1;marginBottom=0;" parent="1" vertex="1">
          <mxGeometry x="-330" y="-290" width="270" height="140" as="geometry" />
        </mxCell>
        <mxCell id="jYdG3Akt0IeGUaFJMhiI-50" value="- header: String&#xa;- body: String,&#xa;- icon: IconIdentifier&#xa;- id: u32&#xa;- read: bool" style="text;strokeColor=none;fillColor=none;align=left;verticalAlign=top;spacingLeft=4;spacingRight=4;overflow=hidden;rotatable=0;points=[[0,0.5],[1,0.5]];portConstraint=eastwest;" parent="jYdG3Akt0IeGUaFJMhiI-49" vertex="1">
          <mxGeometry y="20" width="270" height="80" as="geometry" />
        </mxCell>
        <mxCell id="jYdG3Akt0IeGUaFJMhiI-51" value="" style="line;strokeWidth=1;fillColor=none;align=left;verticalAlign=middle;spacingTop=-1;spacingLeft=3;spacingRight=3;rotatable=0;labelPosition=right;points=[];portConstraint=eastwest;strokeColor=inherit;" parent="jYdG3Akt0IeGUaFJMhiI-49" vertex="1">
          <mxGeometry y="100" width="270" height="8" as="geometry" />
        </mxCell>
        <mxCell id="jYdG3Akt0IeGUaFJMhiI-52" value="+ set_read()" style="text;strokeColor=none;fillColor=none;align=left;verticalAlign=top;spacingLeft=4;spacingRight=4;overflow=hidden;rotatable=0;points=[[0,0.5],[1,0.5]];portConstraint=eastwest;" parent="jYdG3Akt0IeGUaFJMhiI-49" vertex="1">
          <mxGeometry y="108" width="270" height="32" as="geometry" />
        </mxCell>
        <mxCell id="jYdG3Akt0IeGUaFJMhiI-53" value="NotificationIcons" style="swimlane;fontStyle=1;align=center;verticalAlign=top;childLayout=stackLayout;horizontal=1;startSize=20;horizontalStack=0;resizeParent=1;resizeParentMax=0;resizeLast=0;collapsible=1;marginBottom=0;" parent="1" vertex="1">
          <mxGeometry x="-280" y="-130" width="170" height="88" as="geometry" />
        </mxCell>
        <mxCell id="jYdG3Akt0IeGUaFJMhiI-54" value="- Warning, Error, Tick" style="text;strokeColor=none;fillColor=none;align=left;verticalAlign=top;spacingLeft=4;spacingRight=4;overflow=hidden;rotatable=0;points=[[0,0.5],[1,0.5]];portConstraint=eastwest;" parent="jYdG3Akt0IeGUaFJMhiI-53" vertex="1">
          <mxGeometry y="20" width="170" height="60" as="geometry" />
        </mxCell>
        <mxCell id="jYdG3Akt0IeGUaFJMhiI-55" value="" style="line;strokeWidth=1;fillColor=none;align=left;verticalAlign=middle;spacingTop=-1;spacingLeft=3;spacingRight=3;rotatable=0;labelPosition=right;points=[];portConstraint=eastwest;strokeColor=inherit;" parent="jYdG3Akt0IeGUaFJMhiI-53" vertex="1">
          <mxGeometry y="80" width="170" height="8" as="geometry" />
        </mxCell>
        <mxCell id="jYdG3Akt0IeGUaFJMhiI-58" value="Notifications:&lt;br&gt;- Savings account {} has exceeded maximum balance&lt;br&gt;- Savings account {} is below the minimum balance&lt;br&gt;&lt;br&gt;Trend Notifications:&lt;br&gt;- There has been a change in your average expenses per month&lt;br&gt;- There has been a change in your average income per month" style="text;html=1;align=left;verticalAlign=middle;resizable=0;points=[];autosize=1;strokeColor=none;fillColor=none;" parent="1" vertex="1">
          <mxGeometry x="-690" y="-141" width="370" height="110" as="geometry" />
        </mxCell>
        <mxCell id="jYdG3Akt0IeGUaFJMhiI-63" style="edgeStyle=orthogonalEdgeStyle;rounded=0;orthogonalLoop=1;jettySize=auto;html=1;" parent="1" source="jYdG3Akt0IeGUaFJMhiI-59" target="jYdG3Akt0IeGUaFJMhiI-49" edge="1">
          <mxGeometry relative="1" as="geometry" />
        </mxCell>
        <mxCell id="jYdG3Akt0IeGUaFJMhiI-59" value="NotificationsManager" style="swimlane;fontStyle=1;align=center;verticalAlign=top;childLayout=stackLayout;horizontal=1;startSize=20;horizontalStack=0;resizeParent=1;resizeParentMax=0;resizeLast=0;collapsible=1;marginBottom=0;" parent="1" vertex="1">
          <mxGeometry x="-370" y="-440" width="350" height="130" as="geometry" />
        </mxCell>
        <mxCell id="jYdG3Akt0IeGUaFJMhiI-60" value="- notifications: Vec&lt;Notification&gt;" style="text;strokeColor=none;fillColor=none;align=left;verticalAlign=top;spacingLeft=4;spacingRight=4;overflow=hidden;rotatable=0;points=[[0,0.5],[1,0.5]];portConstraint=eastwest;" parent="jYdG3Akt0IeGUaFJMhiI-59" vertex="1">
          <mxGeometry y="20" width="350" height="20" as="geometry" />
        </mxCell>
        <mxCell id="jYdG3Akt0IeGUaFJMhiI-61" value="" style="line;strokeWidth=1;fillColor=none;align=left;verticalAlign=middle;spacingTop=-1;spacingLeft=3;spacingRight=3;rotatable=0;labelPosition=right;points=[];portConstraint=eastwest;strokeColor=inherit;" parent="jYdG3Akt0IeGUaFJMhiI-59" vertex="1">
          <mxGeometry y="40" width="350" height="8" as="geometry" />
        </mxCell>
        <mxCell id="jYdG3Akt0IeGUaFJMhiI-62" value="+ push(title: &amp;str, body: &amp;str, icon: &amp;IconIdentifier): &amp;Notification&#xa;+ remove_notification(id: u64): bool&#xa;+ find(id: u32): Option&lt;&amp;Transaction&gt;&#xa;+ set_read(id: u32)&#xa;+ clear()" style="text;strokeColor=none;fillColor=none;align=left;verticalAlign=top;spacingLeft=4;spacingRight=4;overflow=hidden;rotatable=0;points=[[0,0.5],[1,0.5]];portConstraint=eastwest;" parent="jYdG3Akt0IeGUaFJMhiI-59" vertex="1">
          <mxGeometry y="48" width="350" height="82" as="geometry" />
        </mxCell>
        <mxCell id="jYdG3Akt0IeGUaFJMhiI-84" style="edgeStyle=orthogonalEdgeStyle;rounded=0;orthogonalLoop=1;jettySize=auto;html=1;endArrow=block;endFill=1;" parent="1" source="jYdG3Akt0IeGUaFJMhiI-66" target="jYdG3Akt0IeGUaFJMhiI-79" edge="1">
          <mxGeometry relative="1" as="geometry" />
        </mxCell>
        <mxCell id="jYdG3Akt0IeGUaFJMhiI-66" value="Transfer" style="swimlane;fontStyle=1;align=center;verticalAlign=top;childLayout=stackLayout;horizontal=1;startSize=20;horizontalStack=0;resizeParent=1;resizeParentMax=0;resizeLast=0;collapsible=1;marginBottom=0;" parent="1" vertex="1">
          <mxGeometry x="-400" y="-600" width="130" height="140" as="geometry" />
        </mxCell>
        <mxCell id="jYdG3Akt0IeGUaFJMhiI-67" value="- amount: Money&#xa;- from: u32&#xa;- to: u32&#xa;-id: u32" style="text;strokeColor=none;fillColor=none;align=left;verticalAlign=top;spacingLeft=4;spacingRight=4;overflow=hidden;rotatable=0;points=[[0,0.5],[1,0.5]];portConstraint=eastwest;" parent="jYdG3Akt0IeGUaFJMhiI-66" vertex="1">
          <mxGeometry y="20" width="130" height="80" as="geometry" />
        </mxCell>
        <mxCell id="jYdG3Akt0IeGUaFJMhiI-68" value="" style="line;strokeWidth=1;fillColor=none;align=left;verticalAlign=middle;spacingTop=-1;spacingLeft=3;spacingRight=3;rotatable=0;labelPosition=right;points=[];portConstraint=eastwest;strokeColor=inherit;" parent="jYdG3Akt0IeGUaFJMhiI-66" vertex="1">
          <mxGeometry y="100" width="130" height="8" as="geometry" />
        </mxCell>
        <mxCell id="jYdG3Akt0IeGUaFJMhiI-69" value="+++" style="text;strokeColor=none;fillColor=none;align=left;verticalAlign=top;spacingLeft=4;spacingRight=4;overflow=hidden;rotatable=0;points=[[0,0.5],[1,0.5]];portConstraint=eastwest;" parent="jYdG3Akt0IeGUaFJMhiI-66" vertex="1">
          <mxGeometry y="108" width="130" height="32" as="geometry" />
        </mxCell>
        <mxCell id="jYdG3Akt0IeGUaFJMhiI-83" style="edgeStyle=orthogonalEdgeStyle;rounded=0;orthogonalLoop=1;jettySize=auto;html=1;entryX=0.5;entryY=1;entryDx=0;entryDy=0;entryPerimeter=0;endArrow=block;endFill=1;" parent="1" source="jYdG3Akt0IeGUaFJMhiI-71" target="jYdG3Akt0IeGUaFJMhiI-82" edge="1">
          <mxGeometry relative="1" as="geometry" />
        </mxCell>
        <mxCell id="jYdG3Akt0IeGUaFJMhiI-71" value="Deposit" style="swimlane;fontStyle=1;align=center;verticalAlign=top;childLayout=stackLayout;horizontal=1;startSize=20;horizontalStack=0;resizeParent=1;resizeParentMax=0;resizeLast=0;collapsible=1;marginBottom=0;" parent="1" vertex="1">
          <mxGeometry x="-260" y="-600" width="130" height="140" as="geometry" />
        </mxCell>
        <mxCell id="jYdG3Akt0IeGUaFJMhiI-72" value="- amount: Money&#xa;- to: u32&#xa;- tags: TreeSet&lt;u32&gt;&#xa;-id: u32" style="text;strokeColor=none;fillColor=none;align=left;verticalAlign=top;spacingLeft=4;spacingRight=4;overflow=hidden;rotatable=0;points=[[0,0.5],[1,0.5]];portConstraint=eastwest;" parent="jYdG3Akt0IeGUaFJMhiI-71" vertex="1">
          <mxGeometry y="20" width="130" height="80" as="geometry" />
        </mxCell>
        <mxCell id="jYdG3Akt0IeGUaFJMhiI-73" value="" style="line;strokeWidth=1;fillColor=none;align=left;verticalAlign=middle;spacingTop=-1;spacingLeft=3;spacingRight=3;rotatable=0;labelPosition=right;points=[];portConstraint=eastwest;strokeColor=inherit;" parent="jYdG3Akt0IeGUaFJMhiI-71" vertex="1">
          <mxGeometry y="100" width="130" height="8" as="geometry" />
        </mxCell>
        <mxCell id="jYdG3Akt0IeGUaFJMhiI-74" value="+++" style="text;strokeColor=none;fillColor=none;align=left;verticalAlign=top;spacingLeft=4;spacingRight=4;overflow=hidden;rotatable=0;points=[[0,0.5],[1,0.5]];portConstraint=eastwest;" parent="jYdG3Akt0IeGUaFJMhiI-71" vertex="1">
          <mxGeometry y="108" width="130" height="32" as="geometry" />
        </mxCell>
        <mxCell id="jYdG3Akt0IeGUaFJMhiI-105" style="edgeStyle=orthogonalEdgeStyle;rounded=0;orthogonalLoop=1;jettySize=auto;html=1;entryX=0.5;entryY=0;entryDx=0;entryDy=0;endArrow=block;endFill=1;" parent="1" source="jYdG3Akt0IeGUaFJMhiI-75" target="jYdG3Akt0IeGUaFJMhiI-79" edge="1">
          <mxGeometry relative="1" as="geometry" />
        </mxCell>
        <mxCell id="jYdG3Akt0IeGUaFJMhiI-75" value="TransactionsManager" style="swimlane;fontStyle=1;align=center;verticalAlign=top;childLayout=stackLayout;horizontal=1;startSize=20;horizontalStack=0;resizeParent=1;resizeParentMax=0;resizeLast=0;collapsible=1;marginBottom=0;" parent="1" vertex="1">
          <mxGeometry x="-340" y="-1060" width="290" height="220" as="geometry" />
        </mxCell>
        <mxCell id="jYdG3Akt0IeGUaFJMhiI-76" value="- transactions: Vec&lt;Box&lt;dyn Transaction&gt;&gt;&#xa;- saved_transactions: Vec&lt;Box&lt;dyn Transaction&gt;&gt;" style="text;strokeColor=none;fillColor=none;align=left;verticalAlign=top;spacingLeft=4;spacingRight=4;overflow=hidden;rotatable=0;points=[[0,0.5],[1,0.5]];portConstraint=eastwest;" parent="jYdG3Akt0IeGUaFJMhiI-75" vertex="1">
          <mxGeometry y="20" width="290" height="40" as="geometry" />
        </mxCell>
        <mxCell id="jYdG3Akt0IeGUaFJMhiI-77" value="" style="line;strokeWidth=1;fillColor=none;align=left;verticalAlign=middle;spacingTop=-1;spacingLeft=3;spacingRight=3;rotatable=0;labelPosition=right;points=[];portConstraint=eastwest;strokeColor=inherit;" parent="jYdG3Akt0IeGUaFJMhiI-75" vertex="1">
          <mxGeometry y="60" width="290" height="8" as="geometry" />
        </mxCell>
        <mxCell id="jYdG3Akt0IeGUaFJMhiI-78" value="+ count(): usize&#xa;+ find(id: u32): Option&lt;&amp;Transaction&gt;&#xa;+ edit_amount(id: u32, amount: &amp;Money): bool&#xa;+ add_tag(tag: u32): bool&#xa;+ remove_tag(tag: u32): bool&#xa;+ save(path: &amp;str): bool&#xa;+ remove_transaction(id: u32): bool&#xa;// remove_transaction should put money back in&#xa;  accounts (i.e. rming deposit should remove the &#xa;  money from the deposited account" style="text;strokeColor=none;fillColor=none;align=left;verticalAlign=top;spacingLeft=4;spacingRight=4;overflow=hidden;rotatable=0;points=[[0,0.5],[1,0.5]];portConstraint=eastwest;" parent="jYdG3Akt0IeGUaFJMhiI-75" vertex="1">
          <mxGeometry y="68" width="290" height="152" as="geometry" />
        </mxCell>
        <mxCell id="jYdG3Akt0IeGUaFJMhiI-79" value="Transaction (trait)" style="swimlane;fontStyle=3;align=center;verticalAlign=top;childLayout=stackLayout;horizontal=1;startSize=20;horizontalStack=0;resizeParent=1;resizeParentMax=0;resizeLast=0;collapsible=1;marginBottom=0;" parent="1" vertex="1">
          <mxGeometry x="-330" y="-790" width="270" height="130" as="geometry" />
        </mxCell>
        <mxCell id="jYdG3Akt0IeGUaFJMhiI-81" value="" style="line;strokeWidth=1;fillColor=none;align=left;verticalAlign=middle;spacingTop=-1;spacingLeft=3;spacingRight=3;rotatable=0;labelPosition=right;points=[];portConstraint=eastwest;strokeColor=inherit;" parent="jYdG3Akt0IeGUaFJMhiI-79" vertex="1">
          <mxGeometry y="20" width="270" height="8" as="geometry" />
        </mxCell>
        <mxCell id="jYdG3Akt0IeGUaFJMhiI-82" value="+ get_id(): u32&#xa;+ edit_amount(amount: &amp;Money): bool&#xa;// edit_amount should try to find the account and&#xa;    update them accordingly&#xa;+ add_tag(tag: u32): bool&#xa;+ remove_tag(tag: u32): bool" style="text;strokeColor=none;fillColor=none;align=left;verticalAlign=top;spacingLeft=4;spacingRight=4;overflow=hidden;rotatable=0;points=[[0,0.5],[1,0.5]];portConstraint=eastwest;" parent="jYdG3Akt0IeGUaFJMhiI-79" vertex="1">
          <mxGeometry y="28" width="270" height="102" as="geometry" />
        </mxCell>
        <mxCell id="jYdG3Akt0IeGUaFJMhiI-94" style="edgeStyle=orthogonalEdgeStyle;rounded=0;orthogonalLoop=1;jettySize=auto;html=1;endArrow=block;endFill=1;" parent="1" source="jYdG3Akt0IeGUaFJMhiI-90" target="jYdG3Akt0IeGUaFJMhiI-79" edge="1">
          <mxGeometry relative="1" as="geometry" />
        </mxCell>
        <mxCell id="jYdG3Akt0IeGUaFJMhiI-90" value="Withdrawal" style="swimlane;fontStyle=1;align=center;verticalAlign=top;childLayout=stackLayout;horizontal=1;startSize=20;horizontalStack=0;resizeParent=1;resizeParentMax=0;resizeLast=0;collapsible=1;marginBottom=0;" parent="1" vertex="1">
          <mxGeometry x="-120" y="-600" width="130" height="140" as="geometry" />
        </mxCell>
        <mxCell id="jYdG3Akt0IeGUaFJMhiI-91" value="- amount: Money&#xa;- from: u32&#xa;- statement: String&#xa;- tags: TreeSet&lt;u32&gt;&#xa;-id: u32" style="text;strokeColor=none;fillColor=none;align=left;verticalAlign=top;spacingLeft=4;spacingRight=4;overflow=hidden;rotatable=0;points=[[0,0.5],[1,0.5]];portConstraint=eastwest;" parent="jYdG3Akt0IeGUaFJMhiI-90" vertex="1">
          <mxGeometry y="20" width="130" height="80" as="geometry" />
        </mxCell>
        <mxCell id="jYdG3Akt0IeGUaFJMhiI-92" value="" style="line;strokeWidth=1;fillColor=none;align=left;verticalAlign=middle;spacingTop=-1;spacingLeft=3;spacingRight=3;rotatable=0;labelPosition=right;points=[];portConstraint=eastwest;strokeColor=inherit;" parent="jYdG3Akt0IeGUaFJMhiI-90" vertex="1">
          <mxGeometry y="100" width="130" height="8" as="geometry" />
        </mxCell>
        <mxCell id="jYdG3Akt0IeGUaFJMhiI-93" value="+++" style="text;strokeColor=none;fillColor=none;align=left;verticalAlign=top;spacingLeft=4;spacingRight=4;overflow=hidden;rotatable=0;points=[[0,0.5],[1,0.5]];portConstraint=eastwest;" parent="jYdG3Akt0IeGUaFJMhiI-90" vertex="1">
          <mxGeometry y="108" width="130" height="32" as="geometry" />
        </mxCell>
        <mxCell id="jYdG3Akt0IeGUaFJMhiI-106" style="edgeStyle=orthogonalEdgeStyle;rounded=0;orthogonalLoop=1;jettySize=auto;html=1;endArrow=block;endFill=1;" parent="1" source="jYdG3Akt0IeGUaFJMhiI-95" target="jYdG3Akt0IeGUaFJMhiI-99" edge="1">
          <mxGeometry relative="1" as="geometry" />
        </mxCell>
        <mxCell id="jYdG3Akt0IeGUaFJMhiI-95" value="TagsManager" style="swimlane;fontStyle=1;align=center;verticalAlign=top;childLayout=stackLayout;horizontal=1;startSize=20;horizontalStack=0;resizeParent=1;resizeParentMax=0;resizeLast=0;collapsible=1;marginBottom=0;" parent="1" vertex="1">
          <mxGeometry x="-315" width="240" height="100" as="geometry" />
        </mxCell>
        <mxCell id="jYdG3Akt0IeGUaFJMhiI-96" value="- tags: Vec&lt;Arc&lt;Mutex&lt;Tag&gt;&gt;&gt;" style="text;strokeColor=none;fillColor=none;align=left;verticalAlign=top;spacingLeft=4;spacingRight=4;overflow=hidden;rotatable=0;points=[[0,0.5],[1,0.5]];portConstraint=eastwest;" parent="jYdG3Akt0IeGUaFJMhiI-95" vertex="1">
          <mxGeometry y="20" width="240" height="20" as="geometry" />
        </mxCell>
        <mxCell id="jYdG3Akt0IeGUaFJMhiI-97" value="" style="line;strokeWidth=1;fillColor=none;align=left;verticalAlign=middle;spacingTop=-1;spacingLeft=3;spacingRight=3;rotatable=0;labelPosition=right;points=[];portConstraint=eastwest;strokeColor=inherit;" parent="jYdG3Akt0IeGUaFJMhiI-95" vertex="1">
          <mxGeometry y="40" width="240" height="8" as="geometry" />
        </mxCell>
        <mxCell id="jYdG3Akt0IeGUaFJMhiI-98" value="+ add(name: String, icon: String): Tag&#xa;+ remove(id: u32)&#xa;+ find(id: u32): Option&lt;Tag&gt;" style="text;strokeColor=none;fillColor=none;align=left;verticalAlign=top;spacingLeft=4;spacingRight=4;overflow=hidden;rotatable=0;points=[[0,0.5],[1,0.5]];portConstraint=eastwest;" parent="jYdG3Akt0IeGUaFJMhiI-95" vertex="1">
          <mxGeometry y="48" width="240" height="52" as="geometry" />
        </mxCell>
        <mxCell id="jYdG3Akt0IeGUaFJMhiI-99" value="Tag" style="swimlane;fontStyle=1;align=center;verticalAlign=top;childLayout=stackLayout;horizontal=1;startSize=20;horizontalStack=0;resizeParent=1;resizeParentMax=0;resizeLast=0;collapsible=1;marginBottom=0;" parent="1" vertex="1">
          <mxGeometry x="-320" y="130" width="250" height="160" as="geometry" />
        </mxCell>
        <mxCell id="jYdG3Akt0IeGUaFJMhiI-100" value="- name: String&#xa;- icon: String&#xa;- id: u32" style="text;strokeColor=none;fillColor=none;align=left;verticalAlign=top;spacingLeft=4;spacingRight=4;overflow=hidden;rotatable=0;points=[[0,0.5],[1,0.5]];portConstraint=eastwest;" parent="jYdG3Akt0IeGUaFJMhiI-99" vertex="1">
          <mxGeometry y="20" width="250" height="60" as="geometry" />
        </mxCell>
        <mxCell id="jYdG3Akt0IeGUaFJMhiI-101" value="" style="line;strokeWidth=1;fillColor=none;align=left;verticalAlign=middle;spacingTop=-1;spacingLeft=3;spacingRight=3;rotatable=0;labelPosition=right;points=[];portConstraint=eastwest;strokeColor=inherit;" parent="jYdG3Akt0IeGUaFJMhiI-99" vertex="1">
          <mxGeometry y="80" width="250" height="8" as="geometry" />
        </mxCell>
        <mxCell id="jYdG3Akt0IeGUaFJMhiI-102" value="// constructor should copy icon to an&#xa;internal directory named &quot;[id].[extension]&quot;&#xa;+ rename(name: String): bool&#xa;+ set_icon(icon_path: String): bool" style="text;strokeColor=none;fillColor=none;align=left;verticalAlign=top;spacingLeft=4;spacingRight=4;overflow=hidden;rotatable=0;points=[[0,0.5],[1,0.5]];portConstraint=eastwest;" parent="jYdG3Akt0IeGUaFJMhiI-99" vertex="1">
          <mxGeometry y="88" width="250" height="72" as="geometry" />
        </mxCell>
        <mxCell id="jYdG3Akt0IeGUaFJMhiI-103" value="Config Files:&lt;br&gt;|--&amp;gt; budgify/&lt;br&gt;&lt;span style=&quot;white-space: pre;&quot;&gt;&#x9;&lt;/span&gt;|--&amp;gt; tags/&lt;br&gt;&lt;span style=&quot;white-space: pre;&quot;&gt;&#x9;&lt;span style=&quot;white-space: pre;&quot;&gt;&#x9;&lt;/span&gt;&lt;/span&gt;|--&amp;gt; tags.json&lt;br&gt;&lt;span style=&quot;white-space: pre;&quot;&gt;&#x9;&lt;/span&gt;&lt;span style=&quot;white-space: pre;&quot;&gt;&#x9;&lt;/span&gt;|--&amp;gt; icons/&lt;br&gt;&lt;span style=&quot;white-space: pre;&quot;&gt;&#x9;&lt;/span&gt;|--&amp;gt; plans/&lt;br&gt;&lt;span style=&quot;white-space: pre;&quot;&gt;&#x9;&lt;span style=&quot;white-space: pre;&quot;&gt;&#x9;&lt;/span&gt;&lt;/span&gt;|--&amp;gt; plan.json&lt;br&gt;&lt;span style=&quot;white-space: pre;&quot;&gt;&lt;span style=&quot;white-space: pre;&quot;&gt;&#x9;&lt;/span&gt;&#x9;&lt;/span&gt;|--&amp;gt; transactions.json&lt;br&gt;&lt;span style=&quot;white-space: pre;&quot;&gt;&lt;span style=&quot;white-space: pre;&quot;&gt;&#x9;&lt;/span&gt;&#x9;&lt;/span&gt;|--&amp;gt; notifications.json&lt;br&gt;&lt;span style=&quot;white-space: pre;&quot;&gt;&#x9;&lt;span style=&quot;white-space: pre;&quot;&gt;&#x9;&lt;/span&gt;&lt;/span&gt;|--&amp;gt; accounts/&lt;br&gt;&lt;span style=&quot;white-space: pre;&quot;&gt;&#x9;&lt;/span&gt;&lt;span style=&quot;white-space: pre;&quot;&gt;&#x9;&lt;span style=&quot;white-space: pre;&quot;&gt;&#x9;&lt;/span&gt;&lt;/span&gt;|--&amp;gt; chequing/&lt;br&gt;&lt;span style=&quot;white-space: pre;&quot;&gt;&#x9;&lt;/span&gt;&lt;span style=&quot;white-space: pre;&quot;&gt;&#x9;&lt;/span&gt;&lt;span style=&quot;white-space: pre;&quot;&gt;&#x9;&lt;span style=&quot;white-space: pre;&quot;&gt;&#x9;&lt;/span&gt;&lt;/span&gt;|--&amp;gt; [id]-chequing.json&lt;br&gt;&lt;span style=&quot;white-space: pre;&quot;&gt;&lt;span style=&quot;white-space: pre;&quot;&gt;&#x9;&lt;/span&gt;&#x9;&lt;/span&gt;&lt;span style=&quot;white-space: pre;&quot;&gt;&#x9;&lt;/span&gt;|--&amp;gt; savings/&lt;br&gt;&lt;span style=&quot;white-space: pre;&quot;&gt;&#x9;&lt;span style=&quot;white-space: pre;&quot;&gt;&#x9;&lt;/span&gt;&lt;/span&gt;&lt;span style=&quot;white-space: pre;&quot;&gt;&#x9;&lt;/span&gt;&lt;span style=&quot;white-space: pre;&quot;&gt;&#x9;&lt;/span&gt;|--&amp;gt; [id]-savings.json" style="text;html=1;align=left;verticalAlign=middle;resizable=0;points=[];autosize=1;strokeColor=none;fillColor=none;" parent="1" vertex="1">
          <mxGeometry x="1200" y="-650" width="250" height="220" as="geometry" />
        </mxCell>
        <mxCell id="jYdG3Akt0IeGUaFJMhiI-110" value="Constants (file)" style="swimlane;fontStyle=1;align=center;verticalAlign=top;childLayout=stackLayout;horizontal=1;startSize=20;horizontalStack=0;resizeParent=1;resizeParentMax=0;resizeLast=0;collapsible=1;marginBottom=0;" parent="1" vertex="1">
          <mxGeometry x="1030" y="-360" width="220" height="110" as="geometry" />
        </mxCell>
        <mxCell id="jYdG3Akt0IeGUaFJMhiI-112" value="" style="line;strokeWidth=1;fillColor=none;align=left;verticalAlign=middle;spacingTop=-1;spacingLeft=3;spacingRight=3;rotatable=0;labelPosition=right;points=[];portConstraint=eastwest;strokeColor=inherit;" parent="jYdG3Akt0IeGUaFJMhiI-110" vertex="1">
          <mxGeometry y="20" width="220" height="8" as="geometry" />
        </mxCell>
        <mxCell id="jYdG3Akt0IeGUaFJMhiI-113" value="+ generate_id(): u32" style="text;strokeColor=none;fillColor=none;align=left;verticalAlign=top;spacingLeft=4;spacingRight=4;overflow=hidden;rotatable=0;points=[[0,0.5],[1,0.5]];portConstraint=eastwest;" parent="jYdG3Akt0IeGUaFJMhiI-110" vertex="1">
          <mxGeometry y="28" width="220" height="82" as="geometry" />
        </mxCell>
        <mxCell id="jYdG3Akt0IeGUaFJMhiI-114" value="AccountsManager" style="swimlane;fontStyle=1;align=center;verticalAlign=top;childLayout=stackLayout;horizontal=1;startSize=20;horizontalStack=0;resizeParent=1;resizeParentMax=0;resizeLast=0;collapsible=1;marginBottom=0;" parent="1" vertex="1">
          <mxGeometry x="30" y="-300" width="560" height="220" as="geometry" />
        </mxCell>
        <mxCell id="jYdG3Akt0IeGUaFJMhiI-115" value="- chequing_accounts: Vec&lt;ChequingAccount&gt;&#xa;- savings_accounts: Vec&lt;SavingsAccount&gt;&#xa;- auto_save_mappings: Vec&lt;SaveMapping&gt;&#xa;- transactions: TransactionsManager" style="text;strokeColor=none;fillColor=none;align=left;verticalAlign=top;spacingLeft=4;spacingRight=4;overflow=hidden;rotatable=0;points=[[0,0.5],[1,0.5]];portConstraint=eastwest;" parent="jYdG3Akt0IeGUaFJMhiI-114" vertex="1">
          <mxGeometry y="20" width="560" height="70" as="geometry" />
        </mxCell>
        <mxCell id="jYdG3Akt0IeGUaFJMhiI-116" value="" style="line;strokeWidth=1;fillColor=none;align=left;verticalAlign=middle;spacingTop=-1;spacingLeft=3;spacingRight=3;rotatable=0;labelPosition=right;points=[];portConstraint=eastwest;strokeColor=inherit;" parent="jYdG3Akt0IeGUaFJMhiI-114" vertex="1">
          <mxGeometry y="90" width="560" height="8" as="geometry" />
        </mxCell>
        <mxCell id="jYdG3Akt0IeGUaFJMhiI-117" value="+ get_total_savings(): Money&#xa;+ get_total_chequings(): Money&#xa;+ move(from: u32, to: u32, )&#xa;+ withdraw(id: u32, statement: &amp;str, tags: Vec&lt;u32&gt;): Result&lt;&amp;Transaction, TransactionError&gt;&#xa;+ deposit(): Transaction&#xa;+ edit_transaction_amount(id: u32, new_amount: &amp;Money): Result&lt;&amp;Transaction, TransactionError&gt;&#xa;" style="text;strokeColor=none;fillColor=none;align=left;verticalAlign=top;spacingLeft=4;spacingRight=4;overflow=hidden;rotatable=0;points=[[0,0.5],[1,0.5]];portConstraint=eastwest;" parent="jYdG3Akt0IeGUaFJMhiI-114" vertex="1">
          <mxGeometry y="98" width="560" height="122" as="geometry" />
        </mxCell>
        <mxCell id="jYdG3Akt0IeGUaFJMhiI-118" value="&lt;div style=&quot;text-align: left;&quot;&gt;&lt;span style=&quot;background-color: initial;&quot;&gt;Pre-defined tags:&lt;/span&gt;&lt;/div&gt;&lt;div style=&quot;text-align: left;&quot;&gt;- Insurance&lt;/div&gt;&lt;div style=&quot;text-align: left;&quot;&gt;- Bills&lt;/div&gt;&lt;div style=&quot;text-align: left;&quot;&gt;- Food&lt;/div&gt;&lt;div style=&quot;text-align: left;&quot;&gt;- Parking&lt;/div&gt;&lt;div style=&quot;text-align: left;&quot;&gt;- Subscriptions&lt;/div&gt;&lt;div style=&quot;text-align: left;&quot;&gt;- Payroll&lt;/div&gt;&lt;div style=&quot;text-align: left;&quot;&gt;- E-Transfer&lt;/div&gt;&lt;div style=&quot;text-align: left;&quot;&gt;- Tax Return&lt;/div&gt;" style="text;html=1;align=center;verticalAlign=middle;resizable=0;points=[];autosize=1;strokeColor=none;fillColor=none;" parent="1" vertex="1">
          <mxGeometry x="-525" y="40" width="110" height="140" as="geometry" />
        </mxCell>
        <mxCell id="jYdG3Akt0IeGUaFJMhiI-123" value="TransactionError (enum)" style="swimlane;fontStyle=1;align=center;verticalAlign=top;childLayout=stackLayout;horizontal=1;startSize=20;horizontalStack=0;resizeParent=1;resizeParentMax=0;resizeLast=0;collapsible=1;marginBottom=0;" parent="1" vertex="1">
          <mxGeometry x="-660" y="-820" width="220" height="108" as="geometry" />
        </mxCell>
        <mxCell id="jYdG3Akt0IeGUaFJMhiI-124" value="InsufficientFunds, AccountNotFound,&#xa;MaxBalanceReached,&#xa;..." style="text;strokeColor=none;fillColor=none;align=left;verticalAlign=top;spacingLeft=4;spacingRight=4;overflow=hidden;rotatable=0;points=[[0,0.5],[1,0.5]];portConstraint=eastwest;" parent="jYdG3Akt0IeGUaFJMhiI-123" vertex="1">
          <mxGeometry y="20" width="220" height="80" as="geometry" />
        </mxCell>
        <mxCell id="jYdG3Akt0IeGUaFJMhiI-125" value="" style="line;strokeWidth=1;fillColor=none;align=left;verticalAlign=middle;spacingTop=-1;spacingLeft=3;spacingRight=3;rotatable=0;labelPosition=right;points=[];portConstraint=eastwest;strokeColor=inherit;" parent="jYdG3Akt0IeGUaFJMhiI-123" vertex="1">
          <mxGeometry y="100" width="220" height="8" as="geometry" />
        </mxCell>
      </root>
    </mxGraphModel>
  </diagram>
</mxfile>
